<svg width="336" height="101" viewBox="0 0 336 101" fill="none" xmlns="http://www.w3.org/2000/svg">
<rect y="0.362549" width="335" height="100" transform="rotate(-0.0619987 0 0.362549)" fill="#282828"/>
<path d="M51.246 42.4106L51.2158 14.4796L93.1123 14.4343L93.1274 28.3998L65.1964 28.43L65.2115 42.3955L79.177 42.3804L79.2073 70.3114C79.2155 77.9086 72.8541 84.2838 65.2569 84.292L37.3259 84.3223L37.2956 56.3912L51.246 42.4106ZM65.2418 70.3265L65.2115 42.3955L51.2611 56.3761L51.2763 70.3416L65.2418 70.3265ZM125.62 56.2957L125.635 70.2612C125.644 77.8584 119.282 84.2336 111.685 84.2418L97.7196 84.2569L97.7045 70.2914L111.67 70.2763L111.655 56.3108L97.6743 42.3604L97.644 14.4293L139.541 14.384L139.571 42.315L153.551 56.2654L153.582 84.1965L139.616 84.2116L139.586 56.2805L125.605 42.3301L125.59 28.3646L111.625 28.3797L111.64 42.3453L125.62 56.2957ZM160.25 84.1892L160.219 56.2582L174.17 42.2776L174.14 14.3466L188.105 14.3315L188.12 28.297L202.086 28.2819C202.077 20.6846 208.439 14.3095 216.036 14.3012L230.002 14.2861C237.599 14.2779 243.974 20.6393 243.982 28.2365L243.997 42.202L230.047 56.1827L230.062 70.1482C230.07 77.7454 223.709 84.1206 216.112 84.1288L202.146 84.1439C194.549 84.1521 188.174 77.7907 188.166 70.1935L188.15 56.228L202.101 42.2474L188.135 42.2625L174.185 56.2431L174.215 84.1741L160.25 84.1892ZM216.051 28.2668L216.066 42.2323L202.116 56.2129L202.131 70.1784L216.097 70.1633L216.081 56.1978L230.032 42.2171L230.017 28.2516L216.051 28.2668ZM250.721 28.2292L250.705 14.2637L292.602 14.2184L292.617 28.1839L278.667 42.1645C286.264 42.1563 292.639 48.5177 292.647 56.1149L292.662 70.0804C292.671 77.6777 286.309 84.0528 278.712 84.0611L250.781 84.0913L250.766 70.1258L278.697 70.0955L278.682 56.13L264.716 56.1451L264.701 42.1796L278.652 28.199L250.721 28.2292Z" fill="white"/>
</svg>
