<svg width="1280" height="676" viewBox="0 0 1280 676" fill="none" xmlns="http://www.w3.org/2000/svg">
<path d="M626.702 236.795L629.2 232.372L660.982 216.163L678.413 207.951L690.503 204.109L697.881 206.093L710.221 212.229L733.384 231.602L726.885 241.051L729.121 246.642L736.014 252.408L735.446 258.445L748.453 266.533L921.159 422.152L918.546 425.083L918.576 428.829L924.108 426.944L929.707 429.302L934.671 433.453L928.732 440.114L931.489 442.421L935.503 447.638L934.981 450.923L939.914 451.328L945.001 453.722L949.964 457.874L981.981 488.374L986.885 485.033L1006.19 501.178L1007.32 505.847L1010.32 504.638L1013.41 501.174L1020.13 497.957L1029.79 502.78L1018.38 518.818L1017.18 523.399L1022.78 525.757L1029.4 531.293L1074.26 571.142L1079.04 569.559L1080.91 563.682L1082.58 561.816L1095.26 572.426L1098.98 570.418L1105.87 562.691L1111.15 564.321L1107.83 568.051L1123.84 574.931L1138.21 573.928L1146.71 567.088L1151.12 557.285L1169.19 547.28L1182.1 530.637L1186.57 511.585L1181 482.738L1172.12 467.865L1155.63 448.026L1144.6 438.801L1093.63 363.146L1080.41 345.577L1070.97 329.308L1069.14 306.383L1051.18 321.129L1035.81 329.198L998.938 343.014L976.229 346.347L974.855 346.226L982.953 356.623L994.671 374.796L1004.63 386.845L1016.59 401.503L1029.43 414.1L1029.81 419.071L935.78 340.423L832.549 262.916L820.676 259.497L787.586 231.82L773.973 229.271L769.883 223.06L760.415 220.722L757.649 221.664L747.446 213.13L751.96 208.068L750.085 200.453L744.515 201.841L740.001 206.903L713.712 190.496L698.13 185.836L681.904 186.218L660.32 197.468L653.456 195.449L642.232 200.479L638.431 204.742L641.939 206.747L637.663 211.542L621.772 219.647L617.551 218.443L616.906 223.485L618.001 227.656L619.961 233.017L626.702 236.795Z" fill="white"/>
<path d="M1080.56 283.194L1083.05 267.036L1077.55 260.543L1067.4 258.128L1056.54 256.267L1042.37 260.752L1016.47 270.122L997.956 276.608L980.771 284.562L959.739 296.273L946.881 306.915L940.497 317.855L942.096 325.24L952.85 334.235L974.855 346.226L976.229 346.347L998.938 343.014L1035.81 329.198L1051.18 321.129L1069.14 306.383L1076.43 295.32L1080.56 283.194Z" fill="white"/>
<path d="M1083.36 259.74C1089.49 273.094 1062 297.826 1021.96 314.979C981.919 332.133 944.491 335.213 938.362 321.858C932.233 308.504 959.725 283.773 999.766 266.619C1039.81 249.465 1077.24 246.386 1083.36 259.74Z" fill="white"/>
<path d="M617.551 218.443L599.441 214.458L596.48 214.54L592.315 222.452L594.779 231.025L601.397 236.561L626.702 236.795L619.961 233.017L618.001 227.656L616.906 223.485L617.551 218.443Z" fill="white"/>
<path d="M574.829 236.665L582.066 246.904L593.597 240.734L585.701 230.409L584.696 219.801L573.319 226.48L574.829 236.665Z" fill="white"/>
<path d="M555.035 257.785L582.066 246.904L574.829 236.665L573.319 226.48L571.299 227.666L568.822 239.083L555.035 257.785Z" fill="white"/>
<path d="M0 383.537V591H1280V374.906C1197.14 405.732 959.064 446.547 669.701 363.192C380.338 279.837 102.666 342.024 0 383.537Z" fill="url(#paint0_linear_539_142)"/>
<path d="M0 383.537V591H1280V374.906C1197.14 405.732 959.064 446.547 669.701 363.192C380.338 279.837 102.666 342.024 0 383.537Z" fill="url(#paint1_linear_539_142)"/>
<defs>
<linearGradient id="paint0_linear_539_142" x1="640" y1="322" x2="640" y2="591" gradientUnits="userSpaceOnUse">
<stop stop-color="white"/>
<stop offset="1" stop-color="#4346FD"/>
</linearGradient>
<linearGradient id="paint1_linear_539_142" x1="640" y1="322" x2="640" y2="591" gradientUnits="userSpaceOnUse">
<stop stop-color="#4346FD"/>
<stop offset="1" stop-color="white"/>
</linearGradient>
</defs>
</svg>
