<svg width="1155" height="71" viewBox="0 0 1155 71" fill="none" xmlns="http://www.w3.org/2000/svg">
<path d="M526.893 24.6254L585.592 38.6631L598.191 4.48335L623.977 12.6017L598.76 38.4427L627.807 48.1241L616.82 68.1809L585.762 48.8278L527.647 69.6735L491.738 50.4016L526.893 24.6254Z" fill="black"/>
<path d="M35.8934 22.6254L94.5919 36.6631L107.191 2.48335L132.977 10.6017L107.76 36.4427L136.807 46.1241L125.82 66.1809L94.762 46.8278L36.6475 67.6735L0.738456 48.4016L35.8934 22.6254Z" fill="black"/>
<path d="M1052.89 20.6254L1111.59 34.6631L1124.19 0.48335L1149.98 8.60173L1124.76 34.4427L1153.81 44.1241L1142.82 64.1809L1111.76 44.8278L1053.65 65.6735L1017.74 46.4016L1052.89 20.6254Z" fill="black"/>
</svg>
