<svg width="336" height="101" viewBox="0 0 336 101" fill="none" xmlns="http://www.w3.org/2000/svg">
<rect x="0.708984" y="0.549072" width="335" height="100" fill="#151515"/>
<path d="M28.7917 70.5836L28.7917 56.618L42.7573 42.6525V28.687C42.7573 21.0898 49.1255 14.7215 56.7228 14.7215L70.6883 14.7215C78.2855 14.7215 84.6538 21.0898 84.6538 28.687V42.6525L70.6883 56.618V70.5836H84.6538V84.5491H14.8262V70.5836H28.7917ZM56.7228 28.687V42.6525L42.7573 56.618V70.5836H56.7228V56.618L70.6883 42.6525V28.687L56.7228 28.687ZM135.557 28.687V14.7215H149.523V28.687L191.419 28.687V42.6525L163.488 42.6525L177.454 56.618V70.5836H191.419V84.5491H177.342C169.745 84.4373 163.488 78.1808 163.488 70.5836V56.618L149.523 42.6525V84.5491L135.557 84.5491V42.6525L121.592 56.618V70.5836C121.592 78.1808 115.335 84.4373 107.738 84.5491H93.6605V70.5836H107.626V56.618L121.592 42.6525L93.6605 42.6525V28.687L135.557 28.687ZM212.08 42.6525V28.687C212.08 21.0898 218.448 14.7215 226.045 14.7215H240.011C247.608 14.7215 253.976 21.0898 253.976 28.687V42.6525L240.011 56.618V84.5491H226.045V70.5836H212.08V84.5491H198.114V56.618L212.08 42.6525ZM240.011 42.6525V28.687H226.045V42.6525L212.08 56.618H226.045L240.011 42.6525ZM260.723 28.687V14.7215L302.62 14.7215V28.687L288.654 42.6525C296.251 42.6525 302.62 49.0208 302.62 56.618V70.5836C302.62 78.1808 296.251 84.5491 288.654 84.5491H260.723V70.5836H288.654V56.618H274.688V42.6525L288.654 28.687H260.723Z" fill="white"/>
</svg>
