<svg width="789" height="511" viewBox="0 0 789 511" fill="none" xmlns="http://www.w3.org/2000/svg">
<rect width="789" height="511" fill="#4346FD"/>
<path fill-rule="evenodd" clip-rule="evenodd" d="M120.77 391.946L117.691 385.604L191.928 335.583L259.263 314.412L325.794 314.87L367.13 329.212L402.35 357.951L459.585 383.914L519.046 404.544L604.262 397.479L664.601 361.67L700.925 315.016L731.543 277.515L773.029 252.763L788.675 249.718V340.361L746.189 360.888L707.472 404.198L673.86 442.097L617.149 471.622L552.377 474.288L498.303 481.026L448.064 463.595L397.095 426.877L357.413 383.324L322.994 359.509L268.933 340.752L169.498 363.841L120.77 391.946Z" fill="#D64700"/>
<path fill-rule="evenodd" clip-rule="evenodd" d="M788.675 249.718V110.103L739.136 123.568L676.365 152.068L636.113 188.149L598.383 253.477L532.587 300.784L480.845 303.423L435.982 296.297L404.819 271.539L371.359 252.777L327.87 244.841L289.021 259.016L215.383 293.083L155.436 343.034L117.691 385.604L191.928 335.583L259.263 314.412L325.794 314.87L367.13 329.212L402.35 357.951L459.585 383.914L519.046 404.544L604.262 397.479L664.601 361.67L700.925 315.016L731.543 277.515L773.029 252.763L788.675 249.718Z" fill="white"/>
</svg>
