<svg width="491" height="901" viewBox="0 0 491 901" fill="none" xmlns="http://www.w3.org/2000/svg">
<path fill-rule="evenodd" clip-rule="evenodd" d="M491 0H-2V901H491V0ZM196.349 304.077C276.617 304.077 341.687 242.775 341.687 167.156C341.687 91.5367 276.617 30.2351 196.349 30.2351C116.082 30.2351 51.0116 91.5367 51.0116 167.156C51.0116 242.775 116.082 304.077 196.349 304.077ZM373.936 467.057C426.391 467.057 468.914 427.092 468.914 377.792C468.914 328.493 426.391 288.527 373.936 288.527C321.481 288.527 278.959 328.493 278.959 377.792C278.959 427.092 321.481 467.057 373.936 467.057ZM278.957 490.332C278.957 558.37 220.414 613.526 148.197 613.526C75.9806 613.526 17.4374 558.37 17.4374 490.332C17.4374 422.294 75.9806 367.138 148.197 367.138C220.414 367.138 278.957 422.294 278.957 490.332ZM358.914 732.549C400.146 732.549 433.571 701.028 433.571 662.145C433.571 623.261 400.146 591.74 358.914 591.74C317.682 591.74 284.257 623.261 284.257 662.145C284.257 701.028 317.682 732.549 358.914 732.549ZM245.383 774.445C245.383 829.073 198.311 873.357 140.245 873.357C82.1789 873.357 35.107 829.073 35.107 774.445C35.107 719.818 82.1789 675.534 140.245 675.534C198.311 675.534 245.383 719.818 245.383 774.445Z" fill="#D64700"/>
</svg>
