<svg width="1280" height="921" viewBox="0 0 1280 921" fill="none" xmlns="http://www.w3.org/2000/svg">
<path fill-rule="evenodd" clip-rule="evenodd" d="M1280 0L0 0L0 920.89H1280V0ZM1262.45 240.5C1262.45 361.726 1155.8 460 1024.23 460C892.658 460 786 361.726 786 240.5C786 119.273 892.658 21 1024.23 21C1155.8 21 1262.45 119.273 1262.45 240.5ZM795 460C795 514.124 743.513 558 680 558C616.487 558 565 514.124 565 460C565 405.876 616.487 362 680 362C743.513 362 795 405.876 795 460ZM221 701C325.382 701 410 618.173 410 516C410 413.827 325.382 331 221 331C116.618 331 32 413.827 32 516C32 618.173 116.618 701 221 701ZM1210 668.5C1210 751.619 1131.43 819 1034.5 819C937.574 819 859 751.619 859 668.5C859 585.381 937.574 518 1034.5 518C1131.43 518 1210 585.381 1210 668.5ZM583.5 883C679.321 883 757 812.932 757 726.5C757 640.067 679.321 570 583.5 570C487.679 570 410 640.067 410 726.5C410 812.932 487.679 883 583.5 883ZM629 177.5C629 263.932 551.321 334 455.5 334C359.679 334 282 263.932 282 177.5C282 91.0674 359.679 21 455.5 21C551.321 21 629 91.0674 629 177.5Z" fill="#D64700"/>
</svg>
