<svg width="752" height="149" viewBox="0 0 752 149" fill="none" xmlns="http://www.w3.org/2000/svg">
<g clip-path="url(#clip0_553_429)">
<rect x="358.664" y="12" width="335" height="100" transform="rotate(7.27537 358.664 12)" fill="#151515"/>
<path d="M377.652 85.0271L379.421 71.174L395.043 59.0895L396.811 45.2364C397.773 37.7003 404.897 32.1898 412.433 33.1519L426.286 34.9205C433.822 35.8826 439.332 43.0061 438.37 50.5421L436.602 64.3952L420.98 76.4797L419.212 90.3328L433.065 92.1014L431.296 105.954L362.031 97.1116L363.799 83.2585L377.652 85.0271ZM410.664 47.005L408.896 60.8581L393.274 72.9426L391.505 86.7957L405.358 88.5642L407.127 74.7112L422.749 62.6266L424.517 48.7736L410.664 47.005ZM488.864 56.9884L490.632 43.1353L504.485 44.9039L502.717 58.757L544.276 64.0627L542.508 77.9158L514.801 74.3786L526.886 90.0003L525.117 103.853L538.97 105.622L537.202 119.475L523.238 117.692C515.716 116.619 510.302 109.621 511.264 102.085L513.033 88.2317L500.948 72.6101L495.643 114.169L481.789 112.401L487.095 70.8415L471.474 82.926L469.705 96.7791C468.743 104.315 461.744 109.729 454.194 108.878L440.23 107.095L441.999 93.242L455.852 95.0105L457.62 81.1574L473.242 69.0729L445.536 65.5358L447.305 51.6827L488.864 56.9884ZM563.002 80.5322L564.771 66.6791C565.733 59.1431 572.856 53.6325 580.392 54.5946L594.245 56.3632C601.781 57.3253 607.292 64.4488 606.33 71.9849L604.561 85.8379L588.94 97.9224L585.402 125.629L571.549 123.86L573.318 110.007L559.465 108.238L557.696 122.091L543.843 120.323L547.38 92.6167L563.002 80.5322ZM590.708 84.0694L592.477 70.2163L578.624 68.4477L576.855 82.3008L561.233 94.3853L575.086 96.1539L590.708 84.0694ZM613.022 72.8392L614.791 58.9861L656.35 64.2919L654.581 78.1449L638.96 90.2294C646.496 91.1915 652.006 98.315 651.044 105.851L649.276 119.704C648.313 127.24 641.19 132.751 633.654 131.789L605.948 128.252L607.716 114.398L635.422 117.936L637.191 104.083L623.338 102.314L625.106 88.4609L640.728 76.3764L613.022 72.8392Z" fill="white"/>
<rect x="61" y="51.864" width="335" height="100" transform="rotate(-6.48983 61 51.864)" fill="#282828"/>
<path d="M116.63 87.9107L113.473 60.1586L155.101 55.4232L156.68 69.2992L128.928 72.4562L130.506 86.3322L144.382 84.7537L147.539 112.506C148.398 120.054 142.79 127.102 135.242 127.96L107.489 131.117L104.333 103.365L116.63 87.9107ZM133.663 114.084L130.506 86.3322L118.209 101.787L119.787 115.663L133.663 114.084ZM192.091 93.3821L193.67 107.258C194.529 114.807 188.921 121.854 181.372 122.713L167.496 124.291L165.918 110.415L179.794 108.837L178.215 94.9606L162.761 82.663L159.604 54.911L201.232 50.1755L204.389 77.9276L219.843 90.2251L223 117.977L209.124 119.556L205.967 91.8036L190.513 79.5061L188.934 65.6301L175.058 67.2085L176.637 81.0846L192.091 93.3821ZM229.626 117.224L226.469 89.4715L238.766 74.017L235.609 46.2649L249.485 44.6864L251.064 58.5625L264.94 56.984C264.081 49.4354 269.689 42.3882 277.237 41.5295L291.113 39.951C298.662 39.0923 305.709 44.7 306.568 52.2486L308.146 66.1246L295.849 81.5791L297.427 95.4551C298.286 103.004 292.678 110.051 285.13 110.91L271.254 112.488C263.705 113.347 256.658 107.739 255.799 100.191L254.221 86.3145L266.518 70.86L252.642 72.4385L240.345 87.893L243.502 115.645L229.626 117.224ZM278.816 55.4055L280.394 69.2815L268.097 84.736L269.675 98.6121L283.551 97.0336L281.973 83.1576L294.27 67.7031L292.692 53.827L278.816 55.4055ZM313.263 51.4869L311.685 37.6109L353.313 32.8755L354.891 46.7515L342.594 62.206C350.142 61.3473 357.189 66.955 358.048 74.5036L359.627 88.3796C360.485 95.9281 354.878 102.975 347.329 103.834L319.577 106.991L317.998 93.115L345.751 89.9581L344.172 76.082L330.296 77.6605L328.718 63.7845L341.015 48.33L313.263 51.4869Z" fill="white"/>
<rect x="202" y="49.3625" width="335" height="100" transform="rotate(-0.0619987 202 49.3625)" fill="#282828"/>
<path d="M253.246 91.4106L253.216 63.4796L295.112 63.4343L295.127 77.3998L267.196 77.43L267.212 91.3955L281.177 91.3804L281.207 119.311C281.215 126.909 274.854 133.284 267.257 133.292L239.326 133.322L239.296 105.391L253.246 91.4106ZM267.242 119.327L267.212 91.3955L253.261 105.376L253.276 119.342L267.242 119.327ZM327.62 105.296L327.635 119.261C327.644 126.858 321.282 133.234 313.685 133.242L299.72 133.257L299.704 119.291L313.67 119.276L313.655 105.311L299.674 91.3604L299.644 63.4293L341.541 63.384L341.571 91.315L355.551 105.265L355.582 133.196L341.616 133.212L341.586 105.281L327.605 91.3301L327.59 77.3646L313.625 77.3797L313.64 91.3453L327.62 105.296ZM362.25 133.189L362.219 105.258L376.17 91.2776L376.14 63.3466L390.105 63.3315L390.12 77.297L404.086 77.2819C404.077 69.6846 410.439 63.3095 418.036 63.3012L432.002 63.2861C439.599 63.2779 445.974 69.6393 445.982 77.2365L445.997 91.202L432.047 105.183L432.062 119.148C432.07 126.745 425.709 133.121 418.112 133.129L404.146 133.144C396.549 133.152 390.174 126.791 390.166 119.194L390.15 105.228L404.101 91.2474L390.135 91.2625L376.185 105.243L376.215 133.174L362.25 133.189ZM418.051 77.2668L418.066 91.2323L404.116 105.213L404.131 119.178L418.097 119.163L418.081 105.198L432.032 91.2171L432.017 77.2516L418.051 77.2668ZM452.721 77.2292L452.705 63.2637L494.602 63.2184L494.617 77.1839L480.667 91.1645C488.264 91.1563 494.639 97.5177 494.647 105.115L494.662 119.08C494.671 126.678 488.309 133.053 480.712 133.061L452.781 133.091L452.766 119.126L480.697 119.096L480.682 105.13L466.716 105.145L466.701 91.1796L480.652 77.199L452.721 77.2292Z" fill="white"/>
</g>
<defs>
<clipPath id="clip0_553_429">
<rect width="752" height="149" fill="white"/>
</clipPath>
</defs>
</svg>
