<svg width="752" height="420" viewBox="0 0 752 420" fill="none" xmlns="http://www.w3.org/2000/svg">
<g clip-path="url(#clip0_532_127)">
<rect x="358.664" y="289" width="335" height="100" transform="rotate(7.27537 358.664 289)" fill="#151515"/>
<path d="M377.652 362.027L379.421 348.174L395.043 336.089L396.811 322.236C397.773 314.7 404.897 309.19 412.433 310.152L426.286 311.92C433.822 312.883 439.332 320.006 438.37 327.542L436.602 341.395L420.98 353.48L419.212 367.333L433.065 369.101L431.296 382.954L362.031 374.112L363.799 360.259L377.652 362.027ZM410.664 324.005L408.896 337.858L393.274 349.943L391.505 363.796L405.358 365.564L407.127 351.711L422.749 339.627L424.517 325.774L410.664 324.005ZM488.864 333.988L490.632 320.135L504.485 321.904L502.717 335.757L544.276 341.063L542.508 354.916L514.801 351.379L526.886 367L525.117 380.853L538.97 382.622L537.202 396.475L523.238 394.692C515.716 393.619 510.302 386.621 511.264 379.085L513.033 365.232L500.948 349.61L495.643 391.169L481.789 389.401L487.095 347.842L471.474 359.926L469.705 373.779C468.743 381.315 461.744 386.729 454.194 385.878L440.23 384.095L441.999 370.242L455.852 372.011L457.62 358.157L473.242 346.073L445.536 342.536L447.305 328.683L488.864 333.988ZM563.002 357.532L564.771 343.679C565.733 336.143 572.856 330.633 580.392 331.595L594.245 333.363C601.781 334.325 607.292 341.449 606.33 348.985L604.561 362.838L588.94 374.922L585.402 402.629L571.549 400.86L573.318 387.007L559.465 385.238L557.696 399.091L543.843 397.323L547.38 369.617L563.002 357.532ZM590.708 361.069L592.477 347.216L578.624 345.448L576.855 359.301L561.233 371.385L575.086 373.154L590.708 361.069ZM613.022 349.839L614.791 335.986L656.35 341.292L654.581 355.145L638.96 367.229C646.496 368.192 652.006 375.315 651.044 382.851L649.276 396.704C648.313 404.24 641.19 409.751 633.654 408.789L605.948 405.252L607.716 391.398L635.422 394.936L637.191 381.083L623.338 379.314L625.106 365.461L640.728 353.376L613.022 349.839Z" fill="white"/>
<rect x="61" y="328.864" width="335" height="100" transform="rotate(-6.48983 61 328.864)" fill="#282828"/>
<path d="M116.63 364.911L113.473 337.159L155.101 332.423L156.68 346.299L128.928 349.456L130.506 363.332L144.382 361.754L147.539 389.506C148.398 397.054 142.79 404.102 135.242 404.96L107.489 408.117L104.333 380.365L116.63 364.911ZM133.663 391.084L130.506 363.332L118.209 378.787L119.787 392.663L133.663 391.084ZM192.091 370.382L193.67 384.258C194.529 391.807 188.921 398.854 181.372 399.713L167.496 401.291L165.918 387.415L179.794 385.837L178.215 371.961L162.761 359.663L159.604 331.911L201.232 327.176L204.389 354.928L219.843 367.225L223 394.977L209.124 396.556L205.967 368.804L190.513 356.506L188.934 342.63L175.058 344.209L176.637 358.085L192.091 370.382ZM229.626 394.224L226.469 366.471L238.766 351.017L235.609 323.265L249.485 321.686L251.064 335.562L264.94 333.984C264.081 326.435 269.689 319.388 277.237 318.529L291.113 316.951C298.662 316.092 305.709 321.7 306.568 329.249L308.146 343.125L295.849 358.579L297.427 372.455C298.286 380.004 292.678 387.051 285.13 387.91L271.254 389.488C263.705 390.347 256.658 384.739 255.799 377.191L254.221 363.315L266.518 347.86L252.642 349.438L240.345 364.893L243.502 392.645L229.626 394.224ZM278.816 332.406L280.394 346.282L268.097 361.736L269.675 375.612L283.551 374.034L281.973 360.158L294.27 344.703L292.692 330.827L278.816 332.406ZM313.263 328.487L311.685 314.611L353.313 309.875L354.891 323.751L342.594 339.206C350.142 338.347 357.189 343.955 358.048 351.504L359.627 365.38C360.485 372.928 354.878 379.975 347.329 380.834L319.577 383.991L317.998 370.115L345.751 366.958L344.172 353.082L330.296 354.661L328.718 340.784L341.015 325.33L313.263 328.487Z" fill="white"/>
<rect x="202" y="326.363" width="335" height="100" transform="rotate(-0.0619987 202 326.363)" fill="#282828"/>
<path d="M253.246 368.411L253.216 340.48L295.112 340.434L295.127 354.4L267.196 354.43L267.212 368.395L281.177 368.38L281.207 396.311C281.215 403.909 274.854 410.284 267.257 410.292L239.326 410.322L239.296 382.391L253.246 368.411ZM267.242 396.327L267.212 368.395L253.261 382.376L253.276 396.342L267.242 396.327ZM327.62 382.296L327.635 396.261C327.644 403.858 321.282 410.234 313.685 410.242L299.72 410.257L299.704 396.291L313.67 396.276L313.655 382.311L299.674 368.36L299.644 340.429L341.541 340.384L341.571 368.315L355.551 382.265L355.582 410.196L341.616 410.212L341.586 382.281L327.605 368.33L327.59 354.365L313.625 354.38L313.64 368.345L327.62 382.296ZM362.25 410.189L362.219 382.258L376.17 368.278L376.14 340.347L390.105 340.331L390.12 354.297L404.086 354.282C404.077 346.685 410.439 340.309 418.036 340.301L432.002 340.286C439.599 340.278 445.974 346.639 445.982 354.237L445.997 368.202L432.047 382.183L432.062 396.148C432.07 403.745 425.709 410.121 418.112 410.129L404.146 410.144C396.549 410.152 390.174 403.791 390.166 396.194L390.15 382.228L404.101 368.247L390.135 368.262L376.185 382.243L376.215 410.174L362.25 410.189ZM418.051 354.267L418.066 368.232L404.116 382.213L404.131 396.178L418.097 396.163L418.081 382.198L432.032 368.217L432.017 354.252L418.051 354.267ZM452.721 354.229L452.705 340.264L494.602 340.218L494.617 354.184L480.667 368.165C488.264 368.156 494.639 374.518 494.647 382.115L494.662 396.08C494.671 403.678 488.309 410.053 480.712 410.061L452.781 410.091L452.766 396.126L480.697 396.096L480.682 382.13L466.716 382.145L466.701 368.18L480.652 354.199L452.721 354.229Z" fill="white"/>
</g>
<defs>
<clipPath id="clip0_532_127">
<rect width="752" height="420" fill="white"/>
</clipPath>
</defs>
</svg>
