<svg width="441" height="446" viewBox="0 0 441 446" fill="none" xmlns="http://www.w3.org/2000/svg">
<path d="M216.688 38.8153L410.513 148.825L367.827 251.492L176.084 431.514L9.34112 277.515L173.559 133.661L216.688 38.8153Z" fill="white"/>
<path fill-rule="evenodd" clip-rule="evenodd" d="M380.896 15.4179L367.365 19.2769L362.566 28.9004L366.988 43.2061L345.971 65.9625L344.236 82.5057L345.208 100.27L338.33 107.717L347.833 113.173L355.607 101.185L357.181 87.3056L354.521 73.8599L374.297 49.9571L387.116 51.5735L394.121 43.988L397.998 31.2126L380.896 15.4179ZM334.59 123.942L334.89 111.441L318.561 105.049L313.513 91.6978L316.583 78.6887L304.355 91.9288L308.267 106.786L316.732 119.204L334.59 123.942Z" fill="#C7C7C7"/>
<path d="M388.019 171.241L212.974 72.4425L191.438 128.965L364.827 229.557L388.019 171.241Z" fill="#D64700"/>
<path d="M138.655 247.613L129.15 275.891L127.22 315.724L180.042 322.893L211.277 303.185L223.528 283.832L224.915 258.535L259.157 264.348L279.695 246.261L248.097 233.434L220.678 228.81L208.735 205.769L183.115 179.551L176.996 206.1L188.736 230.744L158.015 233.293L138.655 247.613Z" fill="black"/>
<path d="M173.694 258.733L180.571 257.928L189.674 263.013L193.714 274.411L188.353 283.26L176.255 286.398L166.292 279.752L163.759 269.49L165.459 262.116L173.694 258.733Z" fill="#D64700"/>
</svg>
