<svg width="1280" height="554" viewBox="0 0 1280 554" fill="none" xmlns="http://www.w3.org/2000/svg">
<path d="M680.175 64.409C677.57 65.9333 674.622 65.8498 673.592 64.2225C672.561 62.5953 673.837 60.0404 676.442 58.5162C679.047 56.9919 681.995 57.0754 683.025 58.7026C684.056 60.3299 682.78 62.8847 680.175 64.409Z" fill="white"/>
<path d="M662.395 74.299C659.79 75.8233 656.843 75.7398 655.812 74.1126C654.781 72.4853 656.058 69.9305 658.663 68.4062C661.268 66.8819 664.215 66.9654 665.246 68.5927C666.276 70.2199 665 72.7748 662.395 74.299Z" fill="white"/>
<path d="M643.686 84.6075C641.081 86.1318 638.134 86.0483 637.104 84.4211C636.073 82.7938 637.349 80.239 639.954 78.7147C642.559 77.1904 645.507 77.2739 646.537 78.9012C647.568 80.5284 646.292 83.0833 643.686 84.6075Z" fill="white"/>
<path d="M639.546 3.8734C637.023 5.52054 635.881 8.13329 636.995 9.70916C638.108 11.285 641.056 11.2272 643.579 9.58011C646.102 7.93298 647.244 5.32022 646.13 3.74435C645.017 2.16849 642.069 2.22627 639.546 3.8734Z" fill="white"/>
<path d="M622.961 15.3926C620.438 17.0397 619.296 19.6525 620.41 21.2283C621.524 22.8042 624.471 22.7464 626.994 21.0993C629.517 19.4522 630.659 16.8394 629.546 15.2635C628.432 13.6877 625.484 13.7454 622.961 15.3926Z" fill="white"/>
<path d="M604.85 26.5936C602.327 28.2408 601.185 30.8535 602.299 32.4294C603.413 34.0052 606.361 33.9475 608.883 32.3003C611.406 30.6532 612.548 28.0405 611.435 26.4646C610.321 24.8887 607.373 24.9465 604.85 26.5936Z" fill="white"/>
<path fill-rule="evenodd" clip-rule="evenodd" d="M113.917 217.422C58.2499 270.024 94.2019 340.994 117.951 372.056C157.837 431.639 195.515 437.151 223.709 441.276C224.446 441.384 225.177 441.491 225.9 441.598C254.318 445.793 313.893 410.211 321.907 366.761C328.318 332.001 361.339 318.257 377.049 315.73C389.153 314.669 402.037 310.474 414.615 301.22C451.22 274.29 437.465 227.455 426.012 207.403L621.432 78.0234L635.797 75.4496L656.394 64.0396L674.357 54.089L694.476 42.9444L695.668 35.8968L674.009 3.54191L665.796 0.102051L646.753 12.8533L629.297 24.5419L610.253 37.2931L601.565 48.3461L398.943 168.928C383.806 144.845 347.319 119.768 315.356 130.385C285.445 140.322 269.659 163.627 259.453 178.695C258.753 179.728 258.08 180.723 257.429 181.672C249.325 193.499 226.099 193.887 215.499 192.603C178.078 187.876 140.277 192.513 113.917 217.422ZM284.58 264.9C297.12 283.631 322.775 289.237 341.882 277.42C360.989 265.602 366.313 240.838 353.774 222.106C341.234 203.374 315.579 197.769 296.472 209.586C277.365 221.403 272.041 246.168 284.58 264.9Z" fill="white"/>
<path d="M1280 254.76V554H0V242.31C82.865 286.774 320.936 345.643 610.299 225.414C899.662 105.184 1177.33 194.882 1280 254.76Z" fill="url(#paint0_linear_539_141)"/>
<defs>
<linearGradient id="paint0_linear_539_141" x1="640" y1="166" x2="640" y2="554" gradientUnits="userSpaceOnUse">
<stop stop-color="#4346FD"/>
<stop offset="1" stop-color="white"/>
</linearGradient>
</defs>
</svg>
