<svg width="1056" height="420" viewBox="0 0 1056 420" fill="none" xmlns="http://www.w3.org/2000/svg">
<rect x="101" y="29.1665" width="392.393" height="318.285" rx="31.3534" fill="white"/>
<rect x="101" y="29.1665" width="392.393" height="318.285" rx="31.3534" fill="white"/>
<path d="M322.535 322.197C311.238 326.362 298.567 324.02 289.504 316.093L285.905 312.945C280.634 308.334 274.03 305.526 267.052 304.93L262.237 304.518C250.124 303.482 239.57 295.85 234.794 284.671L233.265 281.092C230.46 274.529 225.597 269.056 219.409 265.499L215.941 263.506C205.171 257.316 198.807 245.586 199.49 233.183L199.645 230.378C200.047 223.077 198.005 215.851 193.841 209.841L192.197 207.468C184.999 197.077 184.393 183.481 190.637 172.492L191.799 170.447C195.45 164.021 196.83 156.552 195.717 149.245L195.362 146.92C193.458 134.424 198.883 121.943 209.319 114.811L211.703 113.182C217.739 109.057 222.229 103.038 224.463 96.0759L225.321 93.4008C229.116 81.5726 239.251 72.8918 251.522 70.9597L255.474 70.3375C262.524 69.2274 269.022 65.854 273.987 60.7263L276.694 57.9303C285.15 49.1965 297.735 45.8396 309.417 49.2014L314.062 50.5381C320.792 52.4746 327.964 52.2125 334.534 49.7901L339.021 48.1361C350.318 43.9707 362.989 46.3122 372.052 54.24L375.651 57.3882C380.922 61.9988 387.526 64.8067 394.504 65.4031L399.32 65.8148C411.432 66.8502 421.986 74.4828 426.762 85.662L428.292 89.2409C431.096 95.8041 435.959 101.277 442.147 104.833L445.615 106.827C456.385 113.017 462.749 124.746 462.066 137.15L461.911 139.955C461.509 147.255 463.552 154.481 467.715 160.492L469.359 162.865C476.557 173.255 477.163 186.851 470.919 197.841L469.758 199.886C466.106 206.312 464.726 213.781 465.84 221.088L466.194 223.413C468.098 235.908 462.673 248.39 452.237 255.521L449.853 257.151C443.817 261.276 439.327 267.295 437.093 274.257L436.235 276.932C432.44 288.76 422.305 297.441 410.034 299.373L406.082 299.995C399.032 301.105 392.534 304.479 387.569 309.606L384.862 312.402C376.406 321.136 363.822 324.493 352.139 321.131L347.494 319.795C340.764 317.858 333.592 318.12 327.022 320.543L322.535 322.197Z" fill="#211E1E"/>
<circle cx="330.972" cy="185.361" r="51.3056" fill="#D64700"/>
<circle cx="330.885" cy="185.273" r="8.55093" fill="#D9D9D9"/>
<path d="M149.455 310.872L143.279 299.471L224.038 161.231L242.09 157.906V169.307H231.639L149.455 310.872Z" fill="#A7A7A7"/>
<g clip-path="url(#clip0_531_114)">
<rect x="629" y="29.1665" width="392.393" height="318.285" rx="31.3534" fill="white"/>
<rect x="629" y="29.1665" width="392.393" height="318.285" rx="31.3534" fill="white"/>
<path d="M935.701 298.869C929.277 309.054 917.802 314.914 905.785 314.146L901.013 313.841C894.025 313.394 887.076 315.19 881.179 318.966L877.109 321.573C866.871 328.129 853.852 328.503 843.255 322.546L839.863 320.639C833.641 317.141 826.451 315.763 819.377 316.711L815.412 317.242C803.1 318.892 790.909 313.465 783.896 303.212L782.31 300.893C778.182 294.858 772.162 290.37 765.199 288.139L762.449 287.258C750.412 283.401 741.65 272.987 739.909 260.468L739.586 258.139C738.567 250.818 735.113 244.054 729.78 238.936L728.083 237.308C718.962 228.558 715.663 215.354 719.596 203.342L720.495 200.598C722.77 193.649 722.665 186.141 720.196 179.259L719.248 176.614C715.053 164.922 717.805 151.864 726.36 142.858L729.116 139.958C734.031 134.783 737.13 128.15 737.945 121.059L738.389 117.193C739.777 105.115 747.713 94.7883 759.026 90.3392L763.525 88.5703C770.041 86.0074 775.57 81.4314 779.306 75.5083L781.857 71.464C788.28 61.2795 799.756 55.4194 811.772 56.1873L816.544 56.4922C823.533 56.9388 830.481 55.1432 836.378 51.3666L840.449 48.76C850.686 42.2039 863.705 41.8297 874.302 47.7871L877.695 49.6942C883.916 53.1918 891.107 54.5705 898.181 53.6224L902.146 53.091C914.458 51.4408 926.649 56.8682 933.662 67.1214L935.248 69.4404C939.375 75.4753 945.396 79.9627 952.359 82.1937L955.108 83.0749C967.145 86.9318 975.907 97.3458 977.648 109.865L977.972 112.194C978.99 119.515 982.444 126.28 987.778 131.397L989.475 133.025C998.596 141.775 1001.89 154.979 997.961 166.991L997.063 169.735C994.788 176.684 994.893 184.192 997.361 191.074L998.31 193.719C1002.5 205.411 999.753 218.469 991.197 227.475L988.442 230.376C983.526 235.55 980.427 242.183 979.613 249.274L979.168 253.14C977.781 265.218 969.844 275.545 958.531 279.994L954.033 281.763C947.516 284.326 941.987 288.902 938.251 294.825L935.701 298.869Z" fill="#211E1E"/>
<circle cx="858.972" cy="185.361" r="51.3056" fill="#D64700"/>
<circle cx="858.885" cy="185.273" r="8.55093" fill="#D9D9D9"/>
<path d="M677.455 310.872L671.279 299.471L752.038 161.231L770.09 157.906V169.307H759.639L677.455 310.872Z" fill="#A7A7A7"/>
</g>
<defs>
<clipPath id="clip0_531_114">
<rect width="528" height="420" fill="white" transform="translate(528)"/>
</clipPath>
</defs>
</svg>
